<?xml version="1.0" encoding="UTF-8"?>
<svg width="100px" height="100px" viewBox="0 0 100 100" version="1.1" xmlns="http://www.w3.org/2000/svg" xmlns:xlink="http://www.w3.org/1999/xlink">
    <title>icon-green</title>
    <g id="icon-green" stroke="none" stroke-width="1" fill="none" fill-rule="evenodd">
        <path d="M41.0774989,15.2088668 C39.3920533,15.7658448 37.8141893,16.9494231 36.9176757,18.2722459 C35.8777199,19.8735577 35.9135804,19.4558242 35.9135804,37.8012878 C35.9135804,54.2321395 35.8059988,59.4538085 35.5191144,59.9063531 C35.2680906,60.2892755 34.5867402,59.6974863 32.2916654,57.1562741 C29.9607299,54.5106285 27.9884,52.9093167 26.1236516,52.0042274 C23.0755053,50.5421601 18.7363794,51.5516828 16.5488861,54.2321395 C15.0068827,56.1119403 14.5765562,58.4790969 15.4372093,60.0455976 C15.94427,60.9629208 22.7952139,69.9663766 35.9900408,87.0559648 L35.9900476,87.0559596 C36.9368404,88.2822204 38.3985872,89.0003267 39.9478232,89.0002797 C60.6363074,88.9996524 71.5558662,88.9211515 72.7064995,88.7647769 C76.1849723,88.2774212 78.6593499,85.9450757 79.6634452,82.2899074 C80.5599588,78.9132281 81.2413092,65.2672666 80.9185643,56.4948627 L80.7751221,51.899794 L80.2013534,50.7162157 C79.4841425,49.2889595 78.1214418,48.0009479 76.6152989,47.3395365 C75.6829247,46.8869918 75.2884587,46.8521807 73.6747342,46.8521807 C72.6347784,46.8521807 71.558962,46.9218029 71.3079382,46.9914252 C70.8417511,47.1306697 70.77003,47.0610474 70.4831457,46.399636 C70.0528192,45.4249245 68.6183974,43.9280461 67.5067205,43.371068 C66.0722987,42.6748455 64.4227136,42.3267343 63.131734,42.4659788 C62.5221047,42.535601 61.8048938,42.6052233 61.55387,42.6400344 C61.1952646,42.6748455 61.0518224,42.535601 60.764938,41.8045674 C59.7249822,39.1589217 56.7844175,37.4183654 53.4493869,37.4183654 C52.6245943,37.4183654 51.7280807,37.4879877 51.3694753,37.5924211 L50.759846,37.7664767 L50.759846,29.4118063 C50.759846,20.221669 50.6881249,19.6995021 49.576448,18.028568 C48.8950977,16.9842342 47.9268629,16.2183894 46.4565806,15.556978 C45.560067,15.1392445 45.0580193,15.0348111 43.587737,15 C42.5119207,15 41.5436859,15.0696223 41.0774989,15.2088668 Z" id="Path" fill="#1A663F" fill-rule="nonzero"></path>
        <path d="M40.4570136,7.24537214 C31.3458655,8.76561559 26.3079366,18.0853689 30.4883457,25.7526836 C31.8460854,28.2643902 31.8103554,28.3304877 31.9175454,23.538416 C32.0247354,18.9446369 32.1319254,18.349759 33.2395551,16.3998816 C34.097075,14.8796381 36.1336845,13.0950045 37.8844541,12.2687853 C44.2801227,9.29439591 51.9978011,12.4009803 53.7128407,18.647198 C53.9272207,19.4403684 53.9986806,20.663173 53.9986806,23.8358549 L53.9986806,28 L54.6060905,27.1737807 C56.1067502,25.2239033 57,22.5139041 57,19.9361 C57,13.5907361 52.176451,8.3029328 45.3877525,7.1792746 C43.6012529,6.91488444 42.3149732,6.94793321 40.4570136,7.24537214 Z" id="Path" fill="#1A663F" fill-rule="nonzero"></path>
    </g>
</svg>