<?xml version="1.0" encoding="UTF-8"?>
<svg width="36px" height="46px" viewBox="0 0 36 46" version="1.1" xmlns="http://www.w3.org/2000/svg" xmlns:xlink="http://www.w3.org/1999/xlink">
    <title>Icon</title>
    <g id="Page-1" stroke="none" stroke-width="1" fill="none" fill-rule="evenodd">
        <g id="Design-#2" transform="translate(-27.000000, -29.000000)" fill="#FFFFFF" fill-rule="nonzero">
            <g id="Icon" transform="translate(27.000000, 29.000000)">
                <path d="M14.2240903,5.11580558 C13.3047563,5.42462045 12.4441032,6.08085207 11.9550958,6.8142874 C11.3878472,7.70213016 11.4074075,7.47051901 11.4074075,17.642109 C11.4074075,26.7521478 11.3487266,29.6472873 11.1922442,29.8981994 C11.0553221,30.1105096 10.6836765,29.7823938 9.43181747,28.3734259 C8.16039815,26.9065553 7.0845818,26.0187125 6.06744635,25.5168883 C4.40482108,24.7062493 2.03802512,25.2659762 0.844846989,26.7521478 C0.00375420813,27.794398 -0.230969359,29.1068612 0.238477775,29.9754031 C0.668804314,30.7667412 11.7790531,45.3196422 12.1506988,45.5705543 C12.3463018,45.7056608 12.7375077,45.8407673 13.0504725,45.8986701 C13.7937638,46.0337766 30.4982576,46.0337766 31.4762724,45.8986701 C33.3736213,45.6284571 34.7232818,44.3352948 35.2709701,42.3086972 C35.7599775,40.436507 36.1316232,32.8705425 35.9555805,28.0067082 L35.8773393,25.4589855 L35.5643746,24.8027539 C35.1731686,24.0114158 34.4298773,23.2972814 33.6083448,22.9305637 C33.0997771,22.6796516 32.8846138,22.6603507 32.0044005,22.6603507 C31.4371518,22.6603507 30.8503429,22.6989526 30.7134208,22.7375544 C30.459137,22.8147581 30.4200164,22.7761563 30.263534,22.4094386 C30.0288104,21.8690126 29.2463986,21.0390726 28.6400293,20.7302577 C27.8576175,20.3442391 26.9578438,20.1512298 26.2536731,20.2284336 C25.921148,20.2670354 25.5299421,20.3056373 25.39302,20.3249382 C25.197417,20.3442391 25.1191758,20.2670354 24.9626935,19.8617159 C24.3954448,18.3948452 22.7915005,17.4297988 20.9723928,17.4297988 C20.522506,17.4297988 20.0334986,17.4684006 19.8378956,17.5263034 L19.5053705,17.622808 L19.5053705,12.9905849 C19.5053705,7.89513946 19.4662499,7.60562551 18.8598807,6.67918089 C18.4882351,6.100153 17.9601071,5.67553254 17.1581349,5.30881488 C16.6691274,5.07720372 16.3952833,5.01930093 15.5933111,5 C15.0065022,5 14.4783742,5.03860186 14.2240903,5.11580558 Z M15.9453964,7.50912087 C16.1605597,7.56702366 16.4539642,7.77933388 16.6300068,7.97234318 L16.9429716,8.31975992 L16.9429716,16.3489467 L16.9429716,24.3781335 L17.1776952,24.7255502 C17.5102202,25.2080734 18.1165894,25.4203837 18.6447175,25.2080734 C19.3880088,24.9185595 19.4466896,24.7448511 19.5249308,22.583147 L19.5836117,20.6723549 L19.8965765,20.3635401 C20.4638251,19.7845122 21.4027194,19.7266094 22.165571,20.2284336 C22.6545784,20.5565494 22.7132593,20.8653642 22.7132593,23.5481935 C22.7132593,26.3275274 22.7523799,26.5398376 23.3783094,26.7907497 C23.8281962,26.964458 24.0824801,26.964458 24.4932463,26.7714487 C25.0409347,26.5205367 25.1778567,26.1731199 25.1778567,25.0343651 C25.1778567,23.7798046 25.2952185,23.3744851 25.7451054,22.9884665 C26.1363113,22.6410498 26.6839996,22.5638461 27.2512482,22.8147581 C27.9749792,23.1042721 27.9749792,23.1621749 28.0336601,25.6712958 L28.092341,27.9488055 L28.4053058,28.2576203 C29.0507956,28.894551 30.1266119,28.7015417 30.459137,27.8909027 C30.5373782,27.6785924 30.5960591,27.1960692 30.5960591,26.6749441 C30.5960591,25.8257032 30.6156194,25.7871013 30.9285841,25.4782865 C31.378471,25.0343651 31.8870387,24.9378604 32.4934079,25.2080734 C33.2758198,25.5554902 33.3345007,25.7098976 33.4127419,28.3348241 C33.5496639,32.6582323 33.158458,40.3014005 32.7281315,41.7682712 C32.4738476,42.5982111 31.9848402,43.1579381 31.3589107,43.3316465 C31.0655062,43.4088502 28.287944,43.447452 22.2633724,43.447452 L13.5590402,43.447452 L12.8548695,42.5017065 C12.4636635,41.9998823 10.0186264,38.7380252 7.39754656,35.3024597 C4.77646673,31.8668942 2.62483404,28.9717547 2.58571344,28.894551 C2.48791196,28.6436389 2.95735909,28.064611 3.42680622,27.8523008 C3.99405484,27.5820878 4.61998435,27.5820878 5.16767268,27.8523008 C5.61755951,28.083912 6.69337586,29.1068612 8.27775993,30.8439449 C9.45137777,32.1178063 10.1164279,32.5038249 11.0944427,32.5038249 C11.5638899,32.5038249 11.8964149,32.4266212 12.2680606,32.2529128 C12.9135504,31.9633988 13.1678342,31.6931858 13.5199196,30.9211486 C13.7937638,30.3421207 13.813324,30.2070142 13.8720049,28.1418148 C13.9111255,26.9451571 13.9502461,22.4287396 13.9502461,18.1246322 C13.9306858,7.31611157 13.8915652,8.3776627 14.2632109,7.95304225 C14.4392536,7.76003295 14.732658,7.56702366 14.9673816,7.50912087 C15.4955096,7.41261622 15.5150699,7.41261622 15.9453964,7.50912087 Z" id="Shape"></path>
                <path d="M15.1376858,0.140212653 C10.2567137,1.00892319 7.5578232,6.33449649 9.79732807,10.7158192 C10.5246886,12.1510801 10.5055476,12.1888501 10.5629708,9.45052342 C10.620394,6.82550679 10.6778172,6.48557658 11.2711903,5.37136089 C11.7305759,4.50265036 12.8216167,3.48285972 13.759529,3.01073443 C17.18578,1.31108338 21.3202506,3.08627448 22.2390218,6.65554169 C22.3538682,7.10878197 22.3921503,7.8075274 22.3921503,9.62048853 L22.3921503,12 L22.7175485,11.5278747 C23.5214733,10.413659 24,8.86508806 24,7.39205715 C24,3.7661349 21.4159559,0.744533028 17.7791531,0.10244263 C16.8220998,-0.0486374635 16.1330213,-0.0297524518 15.1376858,0.140212653 Z" id="Path"></path>
            </g>
        </g>
    </g>
</svg>