<?xml version="1.0" encoding="UTF-8"?>
<svg width="206px" height="89px" viewBox="0 0 206 89" version="1.1" xmlns="http://www.w3.org/2000/svg" xmlns:xlink="http://www.w3.org/1999/xlink">
    <title>Icon+Word</title>
    <g id="Icon+Word" stroke="none" stroke-width="1" fill="none" fill-rule="evenodd">
        <text id="Scroll." font-family="Lato-Black, Lato" font-size="35" font-weight="800" fill="#FCFCFC">
            <tspan x="76" y="60">Scroll.</tspan>
        </text>
        <g id="Icon" transform="translate(31.000000, 22.000000)" fill="#FFFFFF" fill-rule="nonzero">
            <path d="M12.2485222,4.09878833 C11.4568735,4.36222388 10.7157556,4.92202443 10.2946658,5.54768386 C9.80620175,6.30506107 9.82304534,6.10748441 9.82304534,14.7843929 C9.82304534,22.5557417 9.77251457,25.0254499 9.63776586,25.2394913 C9.51986073,25.4206033 9.19983253,25.140703 8.12184282,23.9387783 C7.02700952,22.6874594 6.10061211,21.9300822 5.22474547,21.5019994 C3.79304038,20.8104811 1.75496607,21.2879581 0.727507129,22.5557417 C0.00323279034,23.4448366 -0.198890281,24.5644377 0.205355862,25.3053502 C0.433093799,25.7202243 3.38534002,29.6320723 9.06209453,37.040894 L9.06210039,37.0408895 C10.0086969,38.2763075 11.4766031,39.0004748 13.0329778,38.9998563 C21.8985116,38.9963329 26.5890416,38.9592961 27.1045679,38.8887458 C28.7383961,38.6582397 29.9006038,37.5551034 30.3722243,35.8263076 C30.793314,34.2292295 31.1133422,27.7750585 30.9617499,23.6259486 L30.8943755,21.4526053 L30.6248781,20.8928047 C30.2880063,20.2177511 29.6479499,19.6085564 28.9405192,19.2957267 C28.5025858,19.0816853 28.3173064,19.0652206 27.5593448,19.0652206 C27.0708808,19.0652206 26.5655731,19.09815 26.447668,19.1310795 C26.2287013,19.1969384 26.1950141,19.1640089 26.0602654,18.8511792 C25.8581423,18.390167 25.1843988,17.682184 24.6622475,17.4187484 C23.9885039,17.089454 23.2136988,16.9248067 22.6073296,16.9906656 C22.3209886,17.0235951 21.9841168,17.0565245 21.8662117,17.0729892 C21.6977758,17.089454 21.6304014,17.0235951 21.4956527,16.6778359 C21.0071886,15.426517 19.6260143,14.6032809 18.0595605,14.6032809 C17.6721579,14.6032809 17.2510682,14.6362104 17.0826323,14.6856046 L16.7962913,14.7679282 L16.7962913,10.8163949 C16.7962913,6.46970829 16.7626041,6.22273747 16.2404529,5.43243081 C15.9204247,4.93848915 15.4656477,4.57626527 14.7750606,4.26343555 C14.3539709,4.06585889 14.1181606,4.01646472 13.4275734,4 C12.9222658,4 12.4674889,4.03292944 12.2485222,4.09878833 Z" id="Path"></path>
            <path d="M12.1693277,0.116843878 C7.93915186,0.840769326 5.60011344,5.27874708 7.54101766,8.92984934 C8.17139681,10.1259001 8.15480789,10.1573751 8.20457466,7.87543618 C8.25434144,5.68792233 8.30410821,5.40464715 8.81836488,4.47613408 C9.21649908,3.75220863 10.1620678,2.9023831 10.9749251,2.50894536 C13.9443427,1.09256948 17.5275505,2.5718954 18.3238189,5.54628474 C18.4233525,5.92398498 18.4565303,6.50627284 18.4565303,8.01707377 L18.4565303,10 L18.738542,9.60656226 C19.4352769,8.67804918 19.85,7.38757338 19.85,6.16004762 C19.85,3.13844575 17.6104951,0.62044419 14.4585994,0.0853688584 C13.6291531,-0.0405312196 13.0319518,-0.0247937098 12.1693277,0.116843878 Z" id="Path"></path>
        </g>
    </g>
</svg>