<?xml version="1.0" encoding="UTF-8"?>
<svg width="2350px" height="2315px" viewBox="0 0 2350 2315" version="1.1" xmlns="http://www.w3.org/2000/svg" xmlns:xlink="http://www.w3.org/1999/xlink">
    <title>Path</title>
    <g id="Page-1" stroke="none" stroke-width="1" fill="none" fill-rule="evenodd">
        <g id="social-github" fill="#FFFFFF" fill-rule="nonzero">
            <path d="M1175,0 C525.8,0 0,525.8 0,1175 C0,1727.2 378.9,2185.5 890.1,2314.7 C884.2,2300 881.3,2279.4 881.3,2258.9 L881.3,2059.1 L734.4,2059.1 C655.1,2059.1 581.6,2023.9 549.3,1959.2 C511.1,1888.7 505.2,1780 408.3,1712.4 C378.9,1688.9 402.4,1665.4 434.7,1668.3 C496.4,1685.9 546.3,1727.1 593.3,1788.7 C640.3,1850.4 660.9,1865.1 749,1865.1 C790.1,1865.1 854.7,1862.2 913.5,1853.3 C945.8,1771 1001.6,1697.6 1069.2,1662.4 C675.6,1615.4 487.6,1421.5 487.6,1157.1 C487.6,1042.5 537.5,933.8 619.8,839.8 C593.4,748.7 558.1,560.7 631.6,487.3 C807.9,487.3 913.6,601.9 940,631.2 C1028.1,601.8 1125.1,584.2 1224.9,584.2 C1327.7,584.2 1421.7,601.8 1509.8,631.2 C1536.2,601.8 1642,487.3 1818.2,487.3 C1888.7,557.8 1856.4,748.7 1827,839.8 C1909.3,930.9 1956.3,1042.5 1956.3,1157.1 C1956.3,1421.5 1771.2,1615.4 1380.6,1656.5 C1489.3,1712.3 1565.7,1870.9 1565.7,1988.4 L1565.7,2256 C1565.7,2264.8 1562.8,2273.6 1562.8,2282.4 C2021,2123.8 2350,1689.1 2350,1175 C2350,525.8 1824.2,0 1175,0 L1175,0 Z" id="Path"></path>
        </g>
    </g>
</svg>